<mxfile host="app.diagrams.net" modified="2022-04-12T10:28:17.221Z" agent="5.0 (Windows NT 10.0; Win64; x64) AppleWebKit/537.36 (KHTML, like Gecko) Chrome/100.0.4896.75 Safari/537.36" etag="vJRcLRBBxgpiSCk7Hr0b" version="17.4.0" type="github">
  <diagram id="V6QHfMiRqVxOChgMFrc-" name="Page-1">
    <mxGraphModel dx="1814" dy="500" grid="1" gridSize="10" guides="1" tooltips="1" connect="1" arrows="1" fold="1" page="1" pageScale="1" pageWidth="850" pageHeight="1100" math="0" shadow="0">
      <root>
        <mxCell id="0" />
        <mxCell id="1" parent="0" />
        <mxCell id="h0OjAdlszt1tEg1Gr9Ha-38" value="" style="rounded=0;whiteSpace=wrap;html=1;labelBackgroundColor=#FFFFFF;fontFamily=Helvetica;fontSize=14;fillColor=#fff2cc;strokeColor=#d6b656;" vertex="1" parent="1">
          <mxGeometry x="120" y="335" width="460" height="275" as="geometry" />
        </mxCell>
        <mxCell id="h0OjAdlszt1tEg1Gr9Ha-36" value="" style="rounded=0;whiteSpace=wrap;html=1;labelBackgroundColor=#FFFFFF;fontFamily=Helvetica;fontSize=14;fontColor=#000000;fillColor=#FFFFFF;" vertex="1" parent="1">
          <mxGeometry x="-480" y="80" width="1790" height="700" as="geometry" />
        </mxCell>
        <mxCell id="h0OjAdlszt1tEg1Gr9Ha-4" value="" style="rounded=0;whiteSpace=wrap;html=1;" vertex="1" parent="1">
          <mxGeometry x="80" y="290" width="650" height="340" as="geometry" />
        </mxCell>
        <mxCell id="h0OjAdlszt1tEg1Gr9Ha-6" value="FUSE DMZ (&lt;b&gt;Internet&lt;/b&gt;)" style="shape=hexagon;perimeter=hexagonPerimeter2;whiteSpace=wrap;html=1;fixedSize=1;fillColor=#66B2FF;" vertex="1" parent="1">
          <mxGeometry x="630" y="360" width="90" height="80" as="geometry" />
        </mxCell>
        <mxCell id="h0OjAdlszt1tEg1Gr9Ha-8" value="" style="sketch=0;outlineConnect=0;fontColor=#232F3E;gradientColor=none;fillColor=#B0084D;strokeColor=none;dashed=0;verticalLabelPosition=bottom;verticalAlign=top;align=center;html=1;fontSize=12;fontStyle=0;aspect=fixed;pointerEvents=1;shape=mxgraph.aws4.queue;" vertex="1" parent="1">
          <mxGeometry x="320" y="377" width="71.36" height="43" as="geometry" />
        </mxCell>
        <mxCell id="h0OjAdlszt1tEg1Gr9Ha-19" value="" style="edgeStyle=orthogonalEdgeStyle;rounded=0;orthogonalLoop=1;jettySize=auto;html=1;" edge="1" parent="1" source="h0OjAdlszt1tEg1Gr9Ha-7" target="h0OjAdlszt1tEg1Gr9Ha-17">
          <mxGeometry relative="1" as="geometry" />
        </mxCell>
        <mxCell id="h0OjAdlszt1tEg1Gr9Ha-7" value="FUSE MZ" style="shape=hexagon;perimeter=hexagonPerimeter2;whiteSpace=wrap;html=1;fixedSize=1;fillColor=#66B2FF;" vertex="1" parent="1">
          <mxGeometry x="440" y="360" width="90" height="80" as="geometry" />
        </mxCell>
        <mxCell id="h0OjAdlszt1tEg1Gr9Ha-5" value="FUSE DMZ (&lt;b&gt;WAN&lt;/b&gt;)" style="shape=hexagon;perimeter=hexagonPerimeter2;whiteSpace=wrap;html=1;fixedSize=1;fillColor=#66B2FF;" vertex="1" parent="1">
          <mxGeometry x="150" y="360" width="90" height="80" as="geometry" />
        </mxCell>
        <mxCell id="h0OjAdlszt1tEg1Gr9Ha-15" value="" style="rounded=0;whiteSpace=wrap;html=1;fillColor=#FFFFFF;" vertex="1" parent="1">
          <mxGeometry x="870" y="295" width="190" height="335" as="geometry" />
        </mxCell>
        <mxCell id="h0OjAdlszt1tEg1Gr9Ha-16" value="Reference Data Manager" style="shape=hexagon;perimeter=hexagonPerimeter2;whiteSpace=wrap;html=1;fixedSize=1;fillColor=#66B2FF;" vertex="1" parent="1">
          <mxGeometry x="240" y="505" width="101.36" height="90" as="geometry" />
        </mxCell>
        <mxCell id="h0OjAdlszt1tEg1Gr9Ha-17" value="H2 Database" style="shape=cylinder3;whiteSpace=wrap;html=1;boundedLbl=1;backgroundOutline=1;size=15;fillColor=#99FF99;" vertex="1" parent="1">
          <mxGeometry x="455" y="510" width="60" height="80" as="geometry" />
        </mxCell>
        <mxCell id="h0OjAdlszt1tEg1Gr9Ha-20" value="&lt;b&gt;SCM&lt;/b&gt;" style="whiteSpace=wrap;html=1;aspect=fixed;fillColor=#FF66B3;" vertex="1" parent="1">
          <mxGeometry x="925" y="380" width="80" height="80" as="geometry" />
        </mxCell>
        <mxCell id="h0OjAdlszt1tEg1Gr9Ha-21" value="&lt;font face=&quot;Georgia&quot; color=&quot;#ffffff&quot;&gt;&lt;b style=&quot;background-color: rgb(51 , 51 , 255)&quot;&gt;ATOS Environment&lt;/b&gt;&lt;/font&gt;" style="text;html=1;strokeColor=none;fillColor=none;align=center;verticalAlign=middle;whiteSpace=wrap;rounded=0;" vertex="1" parent="1">
          <mxGeometry x="80" y="290" width="140" height="30" as="geometry" />
        </mxCell>
        <mxCell id="h0OjAdlszt1tEg1Gr9Ha-22" value="&lt;span style=&quot;background-color: rgb(0 , 127 , 255)&quot;&gt;Azure&lt;/span&gt;" style="text;html=1;strokeColor=none;fillColor=none;align=center;verticalAlign=middle;whiteSpace=wrap;rounded=0;labelBackgroundColor=#3333FF;fontFamily=Georgia;fontSize=14;fontColor=#FFFFFF;" vertex="1" parent="1">
          <mxGeometry x="880" y="300" width="60" height="30" as="geometry" />
        </mxCell>
        <mxCell id="h0OjAdlszt1tEg1Gr9Ha-23" value="" style="rounded=0;whiteSpace=wrap;html=1;labelBackgroundColor=#007FFF;fontFamily=Georgia;fontSize=14;fontColor=#FFFFFF;fillColor=#CC0000;" vertex="1" parent="1">
          <mxGeometry x="800" y="230" width="10" height="470" as="geometry" />
        </mxCell>
        <mxCell id="h0OjAdlszt1tEg1Gr9Ha-24" value="" style="sketch=0;aspect=fixed;html=1;points=[];align=center;image;fontSize=12;image=img/lib/mscae/Azure_Firewall.svg;labelBackgroundColor=#007FFF;fontFamily=Georgia;fontColor=#FFFFFF;fillColor=#CC0000;" vertex="1" parent="1">
          <mxGeometry x="780" y="395" width="65" height="65" as="geometry" />
        </mxCell>
        <mxCell id="h0OjAdlszt1tEg1Gr9Ha-25" value="" style="endArrow=classic;startArrow=classic;html=1;rounded=0;fontFamily=Georgia;fontSize=14;fontColor=#FFFFFF;entryX=1;entryY=0.5;entryDx=0;entryDy=0;exitX=0;exitY=0.5;exitDx=0;exitDy=0;" edge="1" parent="1" source="h0OjAdlszt1tEg1Gr9Ha-6" target="h0OjAdlszt1tEg1Gr9Ha-7">
          <mxGeometry width="50" height="50" relative="1" as="geometry">
            <mxPoint x="560" y="430" as="sourcePoint" />
            <mxPoint x="610" y="380" as="targetPoint" />
          </mxGeometry>
        </mxCell>
        <mxCell id="h0OjAdlszt1tEg1Gr9Ha-26" value="" style="endArrow=classic;startArrow=classic;html=1;rounded=0;fontFamily=Georgia;fontSize=14;fontColor=#FFFFFF;entryX=1;entryY=0.5;entryDx=0;entryDy=0;" edge="1" parent="1">
          <mxGeometry width="50" height="50" relative="1" as="geometry">
            <mxPoint x="320" y="400" as="sourcePoint" />
            <mxPoint x="240" y="400" as="targetPoint" />
          </mxGeometry>
        </mxCell>
        <mxCell id="h0OjAdlszt1tEg1Gr9Ha-28" value="" style="endArrow=classic;startArrow=classic;html=1;rounded=0;fontFamily=Georgia;fontSize=14;fontColor=#FFFFFF;entryX=1;entryY=0.5;entryDx=0;entryDy=0;exitX=0;exitY=0.5;exitDx=0;exitDy=0;exitPerimeter=0;" edge="1" parent="1" source="h0OjAdlszt1tEg1Gr9Ha-17" target="h0OjAdlszt1tEg1Gr9Ha-16">
          <mxGeometry width="50" height="50" relative="1" as="geometry">
            <mxPoint x="440" y="544.5" as="sourcePoint" />
            <mxPoint x="360" y="544.5" as="targetPoint" />
          </mxGeometry>
        </mxCell>
        <mxCell id="h0OjAdlszt1tEg1Gr9Ha-29" value="" style="endArrow=classic;startArrow=classic;html=1;rounded=0;fontFamily=Georgia;fontSize=14;fontColor=#FFFFFF;" edge="1" parent="1">
          <mxGeometry width="50" height="50" relative="1" as="geometry">
            <mxPoint x="440" y="399.5" as="sourcePoint" />
            <mxPoint x="390" y="400" as="targetPoint" />
          </mxGeometry>
        </mxCell>
        <mxCell id="h0OjAdlszt1tEg1Gr9Ha-30" value="" style="rounded=0;whiteSpace=wrap;html=1;labelBackgroundColor=#007FFF;fontFamily=Georgia;fontSize=14;fontColor=#FFFFFF;fillColor=#FFFFFF;" vertex="1" parent="1">
          <mxGeometry x="-320" y="290" width="290" height="340" as="geometry" />
        </mxCell>
        <mxCell id="h0OjAdlszt1tEg1Gr9Ha-31" value="Aegon Environment" style="text;html=1;strokeColor=none;fillColor=none;align=center;verticalAlign=middle;whiteSpace=wrap;rounded=0;labelBackgroundColor=#007FFF;fontFamily=Georgia;fontSize=14;fontColor=#FFFFFF;" vertex="1" parent="1">
          <mxGeometry x="-320" y="290" width="150" height="30" as="geometry" />
        </mxCell>
        <mxCell id="h0OjAdlszt1tEg1Gr9Ha-32" value="&lt;font face=&quot;Helvetica&quot; style=&quot;background-color: rgb(255 , 255 , 255)&quot; color=&quot;#000000&quot;&gt;unisure&lt;/font&gt;" style="whiteSpace=wrap;html=1;aspect=fixed;labelBackgroundColor=#007FFF;fontFamily=Georgia;fontSize=14;fontColor=#FFFFFF;fillColor=#FFFF99;" vertex="1" parent="1">
          <mxGeometry x="-160" y="359" width="80" height="80" as="geometry" />
        </mxCell>
        <mxCell id="h0OjAdlszt1tEg1Gr9Ha-33" value="&lt;font color=&quot;#000000&quot; style=&quot;background-color: rgb(255 , 255 , 255)&quot;&gt;Heritage&lt;/font&gt;" style="whiteSpace=wrap;html=1;aspect=fixed;labelBackgroundColor=#007FFF;fontFamily=Georgia;fontSize=14;fontColor=#FFFFFF;fillColor=#FFB366;" vertex="1" parent="1">
          <mxGeometry x="-160" y="460" width="80" height="80" as="geometry" />
        </mxCell>
        <mxCell id="h0OjAdlszt1tEg1Gr9Ha-34" value="" style="rounded=0;whiteSpace=wrap;html=1;labelBackgroundColor=#007FFF;fontFamily=Georgia;fontSize=14;fontColor=#FFFFFF;fillColor=#CC0000;" vertex="1" parent="1">
          <mxGeometry x="20" y="230" width="10" height="470" as="geometry" />
        </mxCell>
        <mxCell id="h0OjAdlszt1tEg1Gr9Ha-35" value="" style="image;html=1;image=img/lib/clip_art/networking/Firewall_02_128x128.png;labelBackgroundColor=#FFFFFF;fontFamily=Helvetica;fontSize=14;fontColor=#000000;fillColor=#FFFFFF;" vertex="1" parent="1">
          <mxGeometry x="-15" y="395" width="80" height="80" as="geometry" />
        </mxCell>
      </root>
    </mxGraphModel>
  </diagram>
</mxfile>
